<svg width="20" height="20" viewBox="0 0 20 20" fill="none" xmlns="http://www.w3.org/2000/svg">
<path d="M2.75036 18.9605C2.45036 18.9605 2.15868 18.8855 1.90868 18.7355C1.35035 18.4105 1.03369 17.7605 1.03369 16.9521V7.48548C1.03369 5.71048 2.47535 4.2688 4.25035 4.2688H10.7337C12.5087 4.2688 13.9504 5.71048 13.9504 7.48548V16.9521C13.9504 17.7605 13.6337 18.4021 13.0754 18.7355C12.517 19.0605 11.8004 19.0271 11.092 18.6355L7.81704 16.8105C7.6587 16.7188 7.32535 16.7188 7.16701 16.8105L3.89202 18.6355C3.50869 18.8521 3.11702 18.9605 2.75036 18.9605ZM4.25869 5.52714C3.17535 5.52714 2.29203 6.41046 2.29203 7.49379V16.9605C2.29203 17.3021 2.39203 17.5688 2.55036 17.6605C2.7087 17.7521 2.99204 17.7105 3.29204 17.5438L6.56704 15.7188C7.10037 15.4271 7.90036 15.4271 8.4337 15.7188L11.7087 17.5438C12.0087 17.7105 12.2837 17.7521 12.4504 17.6605C12.6087 17.5688 12.7087 17.3021 12.7087 16.9605V7.49379C12.7087 6.41046 11.8254 5.52714 10.742 5.52714H4.25869Z" fill="#2A2A2A"/>
<path d="M12.2415 18.9572C11.8748 18.9572 11.4915 18.8489 11.0998 18.6405L7.82485 16.8155C7.66652 16.7322 7.32482 16.7322 7.16648 16.8155L3.89983 18.6405C3.1915 19.0322 2.46649 19.0655 1.91649 18.7405C1.35816 18.4155 1.0415 17.7655 1.0415 16.9655V7.49888C1.0415 5.72388 2.48316 4.28223 4.25816 4.28223H10.7415C12.5165 4.28223 13.9582 5.72388 13.9582 7.49888V16.9655C13.9582 17.7655 13.6415 18.4155 13.0832 18.7405C12.8332 18.8822 12.5498 18.9572 12.2415 18.9572ZM7.49984 15.4989C7.83317 15.4989 8.15817 15.5739 8.43317 15.7239L11.7082 17.5489C12.0082 17.7155 12.2915 17.7572 12.4498 17.6572C12.6082 17.5655 12.7082 17.2989 12.7082 16.9572V7.49054C12.7082 6.40721 11.8248 5.52389 10.7415 5.52389H4.25816C3.17482 5.52389 2.2915 6.40721 2.2915 7.49054V16.9572C2.2915 17.2989 2.3915 17.5655 2.54984 17.6572C2.70817 17.7489 2.99151 17.7072 3.29151 17.5405L6.56651 15.7155C6.83317 15.5739 7.1665 15.4989 7.49984 15.4989Z" fill="#2A2A2A"/>
<path d="M17.2422 15.7255C16.8756 15.7255 16.4922 15.6172 16.1006 15.4089L13.0256 13.6922C12.8256 13.5839 12.7089 13.3755 12.7089 13.1505V7.50053C12.7089 6.4172 11.8256 5.53387 10.7422 5.53387H6.66724C6.32557 5.53387 6.04224 5.25054 6.04224 4.90887V4.26719C6.04224 2.49219 7.48389 1.05054 9.25889 1.05054H15.7422C17.5172 1.05054 18.9589 2.49219 18.9589 4.26719V13.7339C18.9589 14.5339 18.6422 15.1838 18.0839 15.5088C17.8339 15.6505 17.5506 15.7255 17.2422 15.7255ZM13.9589 12.7755L16.7089 14.3172C17.0089 14.4839 17.2839 14.5255 17.4506 14.4255C17.6172 14.3255 17.7089 14.0672 17.7089 13.7255V4.25885C17.7089 3.17552 16.8256 2.2922 15.7422 2.2922H9.25889C8.17556 2.2922 7.29224 3.17552 7.29224 4.25885V4.27553H10.7422C12.5172 4.27553 13.9589 5.71719 13.9589 7.49219V12.7755Z" fill="#2A2A2A"/>
</svg>
