<svg width="39" height="39" viewBox="0 0 39 39" fill="none" xmlns="http://www.w3.org/2000/svg">
<path opacity="0.4" d="M14.75 16.3333C16.4989 16.3333 17.9167 14.9156 17.9167 13.1667C17.9167 11.4178 16.4989 10 14.75 10C13.0011 10 11.5833 11.4178 11.5833 13.1667C11.5833 14.9156 13.0011 16.3333 14.75 16.3333Z" stroke="#292D32" stroke-width="1.5" stroke-linecap="round" stroke-linejoin="round"/>
<path d="M21.0833 3.66675H14.75C6.83332 3.66675 3.66666 6.83341 3.66666 14.7501V24.2501C3.66666 32.1667 6.83332 35.3334 14.75 35.3334H24.25C32.1667 35.3334 35.3333 32.1667 35.3333 24.2501V16.3334" stroke="#292D32" stroke-width="1.5" stroke-linecap="round" stroke-linejoin="round"/>
<g opacity="0.4">
<path d="M29 13.1667V3.66675L32.1667 6.83341" stroke="#292D32" stroke-width="1.5" stroke-linecap="round" stroke-linejoin="round"/>
<path d="M29 3.66675L25.8333 6.83341" stroke="#292D32" stroke-width="1.5" stroke-linecap="round" stroke-linejoin="round"/>
</g>
<path opacity="0.4" d="M4.72751 30.5042L12.5333 25.2634C13.7842 24.4242 15.5892 24.5192 16.7133 25.4851L17.2358 25.9442C18.4708 27.0051 20.4658 27.0051 21.7008 25.9442L28.2875 20.2917C29.5225 19.2309 31.5175 19.2309 32.7525 20.2917L35.3333 22.5084" stroke="#292D32" stroke-width="1.5" stroke-linecap="round" stroke-linejoin="round"/>
</svg>
